<?xml version="1.0" encoding="UTF-8"?>
<svg width="24px" height="27px" viewBox="0 0 24 27" version="1.1" xmlns="http://www.w3.org/2000/svg" xmlns:xlink="http://www.w3.org/1999/xlink">
    <!-- Generator: Sketch 52.6 (67491) - http://www.bohemiancoding.com/sketch -->
    <title>Combined Shape</title>
    <desc>Created with Sketch.</desc>
    <g id="Home" stroke="none" stroke-width="1" fill="none" fill-rule="evenodd">
        <g id="Group-14" fill="#FFFFFF" fill-rule="nonzero">
            <g id="Path-22">
                <path d="M23.3684211,24.1734719 L23.3684211,26.5263158 L0.631578947,26.5263158 L0.631578947,24.1320574 L1.82825485,24.1320574 L1.82825485,-4.54747351e-13 L22.1717452,-4.54747351e-13 L22.1722008,24.1734719 L23.3684211,24.1734719 Z M19.7783934,24.1062201 L19.7783934,2.41148325 L4.22160665,2.41148325 L4.22160665,24.1062201 L10.2049861,24.1062201 L10.2049861,19.4041722 L13.7950139,19.4041722 L13.7950139,24.1062201 L19.7783934,24.1062201 Z M6.61495845,8.44019139 L6.61495845,4.82296651 L10.2049861,4.82296651 L10.2049861,8.44019139 L6.61495845,8.44019139 Z M6.61495845,14.4688995 L6.61495845,10.8516746 L10.2049861,10.8516746 L10.2049861,14.4688995 L6.61495845,14.4688995 Z M17.3850416,4.82296651 L17.3850416,8.44019139 L13.7950139,8.44019139 L13.7950139,4.82296651 L17.3850416,4.82296651 Z M17.3850416,10.8516746 L17.3850416,14.4688995 L13.7950139,14.4688995 L13.7950139,10.8516746 L17.3850416,10.8516746 Z" id="Path_279"></path>
            </g>
        </g>
    </g>
</svg>