<?xml version="1.0" encoding="UTF-8"?>
<svg width="28px" height="28px" viewBox="0 0 28 28" version="1.1" xmlns="http://www.w3.org/2000/svg" xmlns:xlink="http://www.w3.org/1999/xlink">
    <!-- Generator: Sketch 52.6 (67491) - http://www.bohemiancoding.com/sketch -->
    <title>Shape</title>
    <desc>Created with Sketch.</desc>
    <g id="Home" stroke="none" stroke-width="1" fill="none" fill-rule="evenodd">
        <path d="M14,0 C6.25714286,0 0,6.25714286 0,14 C0,21.7428571 6.25714286,28 14,28 C21.7428571,28 28,21.7428571 28,14 C28,6.25714286 21.7428571,0 14,0 Z M21.9142857,18.6571429 C22.1714286,17.4857143 22.3142857,16.2285714 22.3714286,14.9142857 L26.0857143,14.9142857 C26,16.2 25.6857143,17.4571429 25.2,18.6571429 L21.9142857,18.6571429 Z M6.08571429,9.34285714 C5.82857143,10.5142857 5.68571429,11.7714286 5.62857143,13.0857143 L1.91428571,13.0857143 C2,11.7714286 2.28571429,10.5142857 2.8,9.34285714 L6.08571429,9.34285714 Z M20,9.34285714 C20.2857143,10.5428571 20.4571429,11.8 20.5142857,13.0857143 L14.9428571,13.0857143 L14.9428571,9.34285714 L20,9.34285714 Z M14.9428571,7.45714286 L14.9428571,2 C15.3714286,2.11428571 15.8,2.34285714 16.2,2.62857143 C16.9714286,3.17142857 17.7142857,4.02857143 18.3428571,5.05714286 C18.7714286,5.77142857 19.1428571,6.6 19.4571429,7.45714286 L14.9428571,7.45714286 Z M9.65714286,5.05714286 C10.2857143,4 11.0285714,3.17142857 11.8,2.62857143 C12.2,2.34285714 12.6285714,2.14285714 13.0571429,2 L13.0571429,7.45714286 L8.54285714,7.45714286 C8.85714286,6.6 9.22857143,5.77142857 9.65714286,5.05714286 Z M13.0571429,9.34285714 L13.0571429,13.0857143 L7.48571429,13.0857143 C7.54285714,11.8 7.71428571,10.5428571 8,9.34285714 L13.0571429,9.34285714 Z M2.8,18.6571429 C2.28571429,17.4857143 2,16.2285714 1.91428571,14.9428571 L5.62857143,14.9428571 C5.68571429,16.2571429 5.82857143,17.4857143 6.08571429,18.6857143 L2.8,18.6857143 L2.8,18.6571429 Z M7.48571429,14.9428571 L13.0571429,14.9428571 L13.0571429,18.6857143 L8,18.6857143 C7.71428571,17.4857143 7.54285714,16.2285714 7.48571429,14.9428571 Z M13.0571429,20.5428571 L13.0571429,26 C12.6285714,25.8857143 12.2,25.6571429 11.8,25.3714286 C11.0285714,24.8285714 10.2857143,23.9714286 9.65714286,22.9428571 C9.22857143,22.2285714 8.85714286,21.4 8.54285714,20.5428571 L13.0571429,20.5428571 Z M18.3428571,22.9428571 C17.7142857,24 16.9714286,24.8285714 16.2,25.3714286 C15.8,25.6571429 15.3714286,25.8571429 14.9428571,26 L14.9428571,20.5428571 L19.4857143,20.5428571 C19.1428571,21.4 18.7714286,22.2285714 18.3428571,22.9428571 Z M14.9428571,18.6571429 L14.9428571,14.9428571 L20.5142857,14.9428571 C20.4571429,16.2285714 20.2857143,17.4857143 20,18.6857143 L14.9428571,18.6857143 L14.9428571,18.6571429 Z M22.3714286,13.0571429 C22.3142857,11.7428571 22.1714286,10.5142857 21.9142857,9.31428571 L25.2,9.31428571 C25.6857143,10.5142857 26,11.7714286 26.0857143,13.0571429 L22.3714286,13.0571429 Z M24.2285714,7.45714286 L21.4285714,7.45714286 C20.8857143,5.74285714 20.1428571,4.22857143 19.2285714,3.02857143 C20.4571429,3.62857143 21.6,4.42857143 22.5714286,5.4 C23.2,6.05714286 23.7428571,6.74285714 24.2285714,7.45714286 Z M5.42857143,5.42857143 C6.4,4.45714286 7.54285714,3.65714286 8.77142857,3.05714286 C7.85714286,4.25714286 7.11428571,5.77142857 6.57142857,7.48571429 L3.77142857,7.48571429 C4.25714286,6.74285714 4.8,6.05714286 5.42857143,5.42857143 Z M3.77142857,20.5428571 L6.57142857,20.5428571 C7.11428571,22.2571429 7.85714286,23.7714286 8.77142857,24.9714286 C7.54285714,24.3714286 6.4,23.5714286 5.42857143,22.6 C4.8,21.9428571 4.25714286,21.2571429 3.77142857,20.5428571 Z M22.5714286,22.5714286 C21.6,23.5428571 20.4571429,24.3428571 19.2285714,24.9428571 C20.1428571,23.7428571 20.8857143,22.2285714 21.4285714,20.5142857 L24.2285714,20.5142857 C23.7428571,21.2571429 23.2,21.9428571 22.5714286,22.5714286 Z" id="Shape" fill="#FFFFFF" fill-rule="nonzero"></path>
    </g>
</svg>