<?xml version="1.0" encoding="UTF-8"?>
<svg width="26px" height="28px" viewBox="0 0 26 28" version="1.1" xmlns="http://www.w3.org/2000/svg" xmlns:xlink="http://www.w3.org/1999/xlink">
    <!-- Generator: Sketch 52.6 (67491) - http://www.bohemiancoding.com/sketch -->
    <title>Shape</title>
    <desc>Created with Sketch.</desc>
    <g id="Home" stroke="none" stroke-width="1" fill="none" fill-rule="evenodd">
        <path d="M18.5714286,3.71428571 L7.42857143,3.71428571 L7.42857143,4.95238095 L4.95238095,4.95238095 L4.95238095,3.71428571 L2.47619048,3.71428571 L2.47619048,24.7619048 L23.5238095,24.7619048 L23.5153248,3.71428571 L21.047619,3.71428571 L21.047619,4.95238095 L18.5714286,4.95238095 L18.5714286,3.71428571 Z M21.047619,1.23809524 L26,1.23809524 L26,27.2380952 L0,27.2380952 L0,1.23809524 L4.95238095,1.23809524 L4.95238095,0 L7.42857143,0 L7.42857143,1.23809524 L18.5714286,1.23809524 L18.5714286,0 L21.047619,0 L21.047619,1.23809524 Z M4.95238095,7.42857143 L21.047619,7.42857143 L21.047619,14.8571429 L4.95238095,14.8571429 L4.95238095,7.42857143 Z M7.42857143,9.9047619 L7.42857143,12.3809524 L18.5714286,12.3809524 L18.5714286,9.9047619 L7.42857143,9.9047619 Z" id="Shape" fill="#FFFFFF" fill-rule="nonzero"></path>
    </g>
</svg>