<?xml version="1.0" encoding="UTF-8"?>
<svg width="31px" height="29px" viewBox="0 0 31 29" version="1.1" xmlns="http://www.w3.org/2000/svg" xmlns:xlink="http://www.w3.org/1999/xlink">
    <!-- Generator: Sketch 52.6 (67491) - http://www.bohemiancoding.com/sketch -->
    <title>Shape</title>
    <desc>Created with Sketch.</desc>
    <g id="Home" stroke="none" stroke-width="1" fill="none" fill-rule="evenodd">
        <path d="M22.962963,12.6296296 L20.6666667,12.6296296 L20.6666667,21.8148148 L22.962963,21.8148148 L22.962963,28.7037037 L0,28.7037037 L0,10.3333333 L11.4814815,0 L22.962963,10.3333333 L22.962963,12.6296296 Z M2.2962963,26.4074074 L20.6666667,26.4074074 L20.6587984,11.4814815 L11.4814815,2.87037037 L2.2962963,11.4814815 L2.2962963,26.4074074 Z M17.4487597,13.7777778 L28.7037037,13.7777778 L31,17.2222222 L28.7037037,20.6666667 L25.2592593,20.6666667 L24.1294352,19.5185185 L22.962963,20.6666667 L21.8208765,20.6666667 L20.6671038,20.0925926 L19.5167315,20.6666667 L17.4487597,20.6666667 C16.2576384,22.7257603 14.0313429,24.1111111 11.4814815,24.1111111 C7.67685321,24.1111111 4.59259259,21.0268505 4.59259259,17.2222222 C4.59259259,13.4175939 7.67685321,10.3333333 11.4814815,10.3333333 C14.0313429,10.3333333 16.2576384,11.7186842 17.4487597,13.7777778 Z M16.10982,15.5 C15.4109317,13.6225559 13.6023864,12.2851852 11.4814815,12.2851852 C8.75483122,12.2851852 6.54444444,14.495572 6.54444444,17.2222222 C6.54444444,19.9488725 8.75483122,22.1592593 11.4814815,22.1592593 C13.6023864,22.1592593 15.4109317,20.8218885 16.10982,18.9444444 L19.5185185,18.9444444 L20.6666667,18.3703704 L21.8148148,18.9444444 L22.962963,18.9444444 L24.1294352,17.7962963 L25.2592593,18.9444444 L28.066623,18.9444444 L29.2147711,17.2222222 L28.1431662,15.5 L16.10982,15.5 Z M11.4814815,19.5185185 C10.2132721,19.5185185 9.18518519,18.4904316 9.18518519,17.2222222 C9.18518519,15.9540128 10.2132721,14.9259259 11.4814815,14.9259259 C12.7496909,14.9259259 13.7777778,15.9540128 13.7777778,17.2222222 C13.7777778,18.4904316 12.7496909,19.5185185 11.4814815,19.5185185 Z" id="Shape" fill="#FFFFFF" fill-rule="nonzero"></path>
    </g>
</svg>